<?xml version="1.0" standalone="no"?><!DOCTYPE svg PUBLIC "-//W3C//DTD SVG 1.1//EN" "http://www.w3.org/Graphics/SVG/1.1/DTD/svg11.dtd"><svg t="1761055704167" class="icon" viewBox="0 0 1024 1024" version="1.1" xmlns="http://www.w3.org/2000/svg" p-id="11823" xmlns:xlink="http://www.w3.org/1999/xlink" width="200" height="200"><path d="M786.285714 200.490198c41.398857-41.050022 77.216352-76.541187 105.201934-104.357978-41.387604-29.538462-91.777407-48.015473-140.839384-50.074725-139.230242-5.941451-347.01222 18.240703-543.608967 294.079296C141.390769 432.173011 2.756923 666.50022 110.828308 877.725538a9984.810198 9984.810198 0 0 1 45.967472-47.385318 9.227253 9.227253 0 0 1 1.564132-4.557363 9.677363 9.677363 0 0 1 6.785407-3.983472C337.807473 645.074989 606.466813 378.733714 786.285714 200.490198z" fill="#ACD263" p-id="11824"></path><path d="M891.487648 96.13222c-28.255648 28.09811-62.902857 62.418989-105.201934 104.357978C607.884659 377.349626 355.688088 654.797363 183.17222 831.274198l92.711384 65.187165c74.977055 50.828659 144.13644 74.335648 163.558682 80.355868 137.227253 42.366593 328.242637-36.785231 400.642813-166.146813 47.497846-84.766945 38.709451-190.171429-23.67578-290.095825-61.518769 38.056791-130.430593 64.545758-201.547956 76.237363a9.879912 9.879912 0 0 1-11.207737-8.056967 9.756132 9.756132 0 0 1 8.034462-11.207736c102.951385-16.890374 201.491692-65.423473 277.492747-136.608352 40.38611-37.775473 89.673143-97.955165 95.018198-169.995253 3.533363-47.992967-14.426022-96.807385-50.62611-137.46356-8.056967-9.069714-32.632967-29.44844-42.085275-37.347868z" fill="#85986F" p-id="11825"></path><path d="M517.89644 1020.241582c-30.922549 0-61.012396-4.084747-89.099253-12.78312-55.070945-17.014154-119.853011-48.803165-173.303561-85.048264a26.331429 26.331429 0 0 1-7.032967-36.571429 26.308923 26.308923 0 0 1 36.605187-7.032967c73.176615 49.60211 140.423033 72.467692 159.282638 78.307868 128.24756 39.598418 313.512791-37.347868 381.276835-158.382417 64.399473-114.958066 2.723165-233.370725-26.781539-278.955605a26.387692 26.387692 0 0 1 7.809407-36.447648 26.37644 26.37644 0 0 1 36.436395 7.798154c73.311648 113.292659 83.697934 234.811077 28.514462 333.351384C806.484396 940.774681 654.234725 1020.241582 517.89644 1020.241582z" fill="#434B56" p-id="11826"></path><path d="M107.925099 915.872352a26.342681 26.342681 0 0 1-23.079385-13.593319C-43.761934 670.326154 106.901099 414.528703 177.635868 315.346989 408.32844-8.372044 667.141626 2.543121 752.18989 6.144c77.970286 3.285802 155.861802 40.498637 208.378374 99.496791 42.749187 48.015473 63.915604 106.304703 59.650813 164.121319-4.928703 66.256176-41.702681 133.210022-106.37222 193.704791C832.703297 539.479209 727.467604 591.286857 617.550769 609.325011a26.331429 26.331429 0 0 1-30.258637-21.75156 26.331429 26.331429 0 0 1 21.740308-30.258638c99.721846-16.361495 195.190154-63.352967 268.816879-132.309802 38.248088-35.783736 84.86822-92.418813 89.830681-159.125099 4.107253-55.734857-22.989363-98.844132-46.473846-125.209319-42.569143-47.835429-108.183912-79.219341-171.244308-81.886241-135.303033-5.69389-337.503648 17.869363-529.396747 287.158857-64.96211 91.057231-203.685978 325.069363-89.628132 530.780835a26.342681 26.342681 0 0 1-23.011868 39.148308z" fill="#434B56" p-id="11827"></path><path d="M31.575209 998.895121a26.308923 26.308923 0 0 1-17.543033-6.672879 26.365187 26.365187 0 0 1-2.126769-37.19033c136.349538-152.947341 549.021538-572.98989 682.884219-706.841319a26.353934 26.353934 0 0 1 37.257847 37.257847C598.499868 419.007297 186.908132 837.924571 51.256264 990.08422a26.353934 26.353934 0 0 1-19.681055 8.810901z" fill="#434B56" p-id="11828"></path><path d="M502.153846 781.829626c-75.269626 0-136.034462-18.859604-205.351384-62.025142a26.365187 26.365187 0 0 1 27.861802-44.752176c73.615473 45.83244 133.491341 59.909626 220.891428 51.965187a26.353934 26.353934 0 0 1 4.793671 52.482813 531.107165 531.107165 0 0 1-48.195517 2.329318zM408.350945 574.272703c-10.915165 0-21.121407-6.84167-24.891077-17.734329-21.076396-61.091165-18.240703-160.227868 6.087736-212.148044a26.331429 26.331429 0 1 1 47.711649 22.347956c-18.477011 39.418374-20.446242 124.916747-3.994726 172.583384a26.353934 26.353934 0 0 1-24.913582 34.951033z" fill="#434B56" p-id="11829"></path></svg>